<svg width="209" height="49" viewBox="0 0 209 49" fill="none" xmlns="http://www.w3.org/2000/svg">
<path d="M20.7852 4.82812V20.6494C20.7852 22.4424 20.4033 23.9974 19.6396 25.3145C18.876 26.6204 17.7803 27.6165 16.3525 28.3027C14.9248 28.9889 13.237 29.332 11.2891 29.332C8.34505 29.332 6.02637 28.5684 4.33301 27.041C2.63965 25.5137 1.77637 23.4219 1.74316 20.7656V4.82812H7.60352V20.8818C7.66992 23.527 8.89844 24.8496 11.2891 24.8496C12.4954 24.8496 13.4085 24.5176 14.0283 23.8535C14.6481 23.1895 14.958 22.1104 14.958 20.6162V4.82812H20.7852ZM36.9053 22.5752C36.9053 21.723 36.6009 21.0589 35.9922 20.583C35.3945 20.1071 34.3376 19.6146 32.8213 19.1055C31.305 18.5964 30.0654 18.1038 29.1025 17.6279C25.9704 16.0895 24.4043 13.9756 24.4043 11.2861C24.4043 9.94694 24.7917 8.76823 25.5664 7.75C26.3522 6.7207 27.459 5.92383 28.8867 5.35938C30.3145 4.78385 31.9193 4.49609 33.7012 4.49609C35.4388 4.49609 36.9938 4.80599 38.3662 5.42578C39.7497 6.04557 40.8232 6.93099 41.5869 8.08203C42.3506 9.22201 42.7324 10.528 42.7324 12H36.9219C36.9219 11.015 36.6175 10.2513 36.0088 9.70898C35.4111 9.16667 34.5977 8.89551 33.5684 8.89551C32.528 8.89551 31.7035 9.12793 31.0947 9.59277C30.4971 10.0465 30.1982 10.6276 30.1982 11.3359C30.1982 11.9557 30.5303 12.5202 31.1943 13.0293C31.8584 13.5273 33.026 14.0475 34.6973 14.5898C36.3685 15.1211 37.7409 15.6966 38.8145 16.3164C41.4264 17.8216 42.7324 19.8968 42.7324 22.542C42.7324 24.6559 41.9355 26.3161 40.3418 27.5225C38.748 28.7288 36.5622 29.332 33.7842 29.332C31.8252 29.332 30.0488 28.9834 28.4551 28.2861C26.8724 27.5778 25.6771 26.6149 24.8691 25.3975C24.0723 24.1689 23.6738 22.7578 23.6738 21.1641H29.5176C29.5176 22.459 29.8496 23.4163 30.5137 24.0361C31.1888 24.6449 32.279 24.9492 33.7842 24.9492C34.7471 24.9492 35.5052 24.7445 36.0586 24.335C36.623 23.9144 36.9053 23.3278 36.9053 22.5752ZM59.4502 24.4844H51.4648L50.0703 29H43.8447L52.71 4.82812H58.1885L67.1201 29H60.8613L59.4502 24.4844ZM52.8594 19.9854H58.0557L55.4492 11.6016L52.8594 19.9854Z" fill="#BB133E"/>
<path d="M88.4531 20.8154C88.3757 22.4977 87.9219 23.9863 87.0918 25.2812C86.2617 26.5651 85.0941 27.5612 83.5889 28.2695C82.0947 28.9779 80.3848 29.332 78.459 29.332C75.2826 29.332 72.7812 28.2972 70.9551 26.2275C69.1289 24.1579 68.2158 21.236 68.2158 17.4619V16.2666C68.2158 13.8981 68.6253 11.8285 69.4443 10.0576C70.2744 8.27572 71.4642 6.90332 73.0137 5.94043C74.5632 4.96647 76.3561 4.47949 78.3926 4.47949C81.3255 4.47949 83.6829 5.25423 85.4648 6.80371C87.2467 8.34212 88.2594 10.4671 88.5029 13.1787H82.6924C82.6481 11.7067 82.2773 10.6497 81.5801 10.0078C80.8828 9.36589 79.8203 9.04492 78.3926 9.04492C76.9427 9.04492 75.8802 9.58724 75.2051 10.6719C74.5299 11.7565 74.1758 13.4886 74.1426 15.8682V17.5781C74.1426 20.1569 74.4635 21.9997 75.1055 23.1064C75.7585 24.2132 76.8763 24.7666 78.459 24.7666C79.7982 24.7666 80.8219 24.4512 81.5303 23.8203C82.2386 23.1895 82.6149 22.1878 82.6592 20.8154H88.4531ZM104.938 24.4844H96.9531L95.5586 29H89.333L98.1982 4.82812H103.677L112.608 29H106.35L104.938 24.4844ZM98.3477 19.9854H103.544L100.938 11.6016L98.3477 19.9854ZM123.366 20.4668H120.212V29H114.385V4.82812H123.897C126.764 4.82812 129.005 5.46452 130.621 6.7373C132.237 8.01009 133.045 9.80859 133.045 12.1328C133.045 13.8151 132.702 15.2096 132.016 16.3164C131.34 17.4232 130.278 18.3197 128.828 19.0059L133.875 28.751V29H127.633L123.366 20.4668ZM120.212 15.9678H123.897C125.004 15.9678 125.834 15.68 126.388 15.1045C126.952 14.5179 127.234 13.7044 127.234 12.6641C127.234 11.6237 126.952 10.8102 126.388 10.2236C125.823 9.62598 124.993 9.32715 123.897 9.32715H120.212V15.9678ZM149.032 22.5752C149.032 21.723 148.728 21.0589 148.119 20.583C147.521 20.1071 146.465 19.6146 144.948 19.1055C143.432 18.5964 142.192 18.1038 141.229 17.6279C138.097 16.0895 136.531 13.9756 136.531 11.2861C136.531 9.94694 136.919 8.76823 137.693 7.75C138.479 6.7207 139.586 5.92383 141.014 5.35938C142.441 4.78385 144.046 4.49609 145.828 4.49609C147.566 4.49609 149.121 4.80599 150.493 5.42578C151.877 6.04557 152.95 6.93099 153.714 8.08203C154.478 9.22201 154.859 10.528 154.859 12H149.049C149.049 11.015 148.744 10.2513 148.136 9.70898C147.538 9.16667 146.725 8.89551 145.695 8.89551C144.655 8.89551 143.83 9.12793 143.222 9.59277C142.624 10.0465 142.325 10.6276 142.325 11.3359C142.325 11.9557 142.657 12.5202 143.321 13.0293C143.985 13.5273 145.153 14.0475 146.824 14.5898C148.495 15.1211 149.868 15.6966 150.941 16.3164C153.553 17.8216 154.859 19.8968 154.859 22.542C154.859 24.6559 154.062 26.3161 152.469 27.5225C150.875 28.7288 148.689 29.332 145.911 29.332C143.952 29.332 142.176 28.9834 140.582 28.2861C138.999 27.5778 137.804 26.6149 136.996 25.3975C136.199 24.1689 135.801 22.7578 135.801 21.1641H141.645C141.645 22.459 141.977 23.4163 142.641 24.0361C143.316 24.6449 144.406 24.9492 145.911 24.9492C146.874 24.9492 147.632 24.7445 148.186 24.335C148.75 23.9144 149.032 23.3278 149.032 22.5752Z" fill="#002664"/>
<path d="M161.052 23.5713C161.937 23.5713 162.673 23.8369 163.26 24.3682C163.846 24.8883 164.14 25.5579 164.14 26.377C164.14 27.196 163.846 27.8711 163.26 28.4023C162.673 28.9225 161.937 29.1826 161.052 29.1826C160.155 29.1826 159.414 28.917 158.827 28.3857C158.252 27.8545 157.964 27.1849 157.964 26.377C157.964 25.569 158.252 24.8994 158.827 24.3682C159.414 23.8369 160.155 23.5713 161.052 23.5713ZM187.93 26.0117C187.033 27.0078 185.722 27.8102 183.995 28.4189C182.269 29.0277 180.376 29.332 178.317 29.332C175.152 29.332 172.623 28.3636 170.73 26.4268C168.838 24.4899 167.825 21.7949 167.692 18.3418L167.676 16.25C167.676 13.8704 168.096 11.7952 168.938 10.0244C169.779 8.24251 170.979 6.87565 172.54 5.92383C174.112 4.96094 175.927 4.47949 177.985 4.47949C180.996 4.47949 183.331 5.17122 184.991 6.55469C186.662 7.92708 187.636 9.98014 187.913 12.7139H182.302C182.103 11.3636 181.671 10.4007 181.007 9.8252C180.343 9.24967 179.402 8.96191 178.185 8.96191C176.724 8.96191 175.595 9.58171 174.798 10.8213C174.001 12.0609 173.597 13.8317 173.586 16.1338V17.5947C173.586 20.0075 173.995 21.8226 174.814 23.04C175.645 24.2464 176.945 24.8496 178.716 24.8496C180.232 24.8496 181.361 24.512 182.103 23.8369V20.085H178.052V16.084H187.93V26.0117ZM206.308 18.7568H197.144V24.5176H207.968V29H191.316V4.82812H208.001V9.32715H197.144V14.4238H206.308V18.7568Z" fill="#828282"/>
<path d="M7.76562 46C7.66146 45.7969 7.58594 45.5443 7.53906 45.2422C6.99219 45.8516 6.28125 46.1562 5.40625 46.1562C4.57812 46.1562 3.89062 45.9167 3.34375 45.4375C2.80208 44.9583 2.53125 44.3542 2.53125 43.625C2.53125 42.7292 2.86198 42.0417 3.52344 41.5625C4.1901 41.0833 5.15104 40.8411 6.40625 40.8359H7.44531V40.3516C7.44531 39.9609 7.34375 39.6484 7.14062 39.4141C6.94271 39.1797 6.6276 39.0625 6.19531 39.0625C5.8151 39.0625 5.51562 39.1536 5.29688 39.3359C5.08333 39.5182 4.97656 39.7682 4.97656 40.0859H2.71875C2.71875 39.5964 2.86979 39.1432 3.17188 38.7266C3.47396 38.3099 3.90104 37.9844 4.45312 37.75C5.00521 37.5104 5.625 37.3906 6.3125 37.3906C7.35417 37.3906 8.17969 37.6536 8.78906 38.1797C9.40365 38.7005 9.71094 39.4349 9.71094 40.3828V44.0469C9.71615 44.849 9.82812 45.4557 10.0469 45.8672V46H7.76562ZM5.89844 44.4297C6.23177 44.4297 6.53906 44.3568 6.82031 44.2109C7.10156 44.0599 7.3099 43.8594 7.44531 43.6094V42.1562H6.60156C5.47135 42.1562 4.86979 42.5469 4.79688 43.3281L4.78906 43.4609C4.78906 43.7422 4.88802 43.974 5.08594 44.1562C5.28385 44.3385 5.55469 44.4297 5.89844 44.4297ZM11.5938 46V37.5469H15.125C16.276 37.5469 17.1589 37.75 17.7734 38.1562C18.388 38.5625 18.6953 39.1458 18.6953 39.9062C18.6953 40.2969 18.5651 40.6484 18.3047 40.9609C18.0495 41.2682 17.6745 41.5052 17.1797 41.6719C17.7839 41.7865 18.2578 42.013 18.6016 42.3516C18.9505 42.6849 19.125 43.0964 19.125 43.5859C19.125 44.3724 18.8281 44.9714 18.2344 45.3828C17.6458 45.7943 16.7891 46 15.6641 46H11.5938ZM13.8516 42.4922V44.1953H15.6719C16.4688 44.1953 16.8672 43.9167 16.8672 43.3594C16.8672 42.7917 16.487 42.5026 15.7266 42.4922H13.8516ZM13.8516 40.9766H15.25C16.0417 40.9661 16.4375 40.7109 16.4375 40.2109C16.4375 39.9036 16.3281 39.6849 16.1094 39.5547C15.8958 39.4245 15.5677 39.3594 15.125 39.3594H13.8516V40.9766ZM27.4297 39.3594H24.7188V46H22.4531V39.3594H19.7891V37.5469H27.4297V39.3594ZM27.9844 41.6953C27.9844 40.8568 28.1458 40.1094 28.4688 39.4531C28.7917 38.7969 29.2552 38.2891 29.8594 37.9297C30.4688 37.5703 31.1745 37.3906 31.9766 37.3906C33.1172 37.3906 34.0469 37.7396 34.7656 38.4375C35.4896 39.1354 35.8932 40.0833 35.9766 41.2812L35.9922 41.8594C35.9922 43.1562 35.6302 44.1979 34.9062 44.9844C34.1823 45.7656 33.2109 46.1562 31.9922 46.1562C30.7734 46.1562 29.7995 45.7656 29.0703 44.9844C28.3464 44.2031 27.9844 43.1406 27.9844 41.7969V41.6953ZM30.2422 41.8594C30.2422 42.6615 30.3932 43.276 30.6953 43.7031C30.9974 44.125 31.4297 44.3359 31.9922 44.3359C32.5391 44.3359 32.9661 44.1276 33.2734 43.7109C33.5807 43.2891 33.7344 42.6172 33.7344 41.6953C33.7344 40.9089 33.5807 40.2995 33.2734 39.8672C32.9661 39.4349 32.5339 39.2188 31.9766 39.2188C31.4245 39.2188 30.9974 39.4349 30.6953 39.8672C30.3932 40.2943 30.2422 40.9583 30.2422 41.8594ZM42.5312 43.3359L44.7422 37.5469H47.5703V46H45.3125V40.8125L43.2891 46H41.7734L39.7891 40.8984V46H37.5312V37.5469H40.3359L42.5312 43.3359ZM49.1875 41.6953C49.1875 40.8568 49.349 40.1094 49.6719 39.4531C49.9948 38.7969 50.4583 38.2891 51.0625 37.9297C51.6719 37.5703 52.3776 37.3906 53.1797 37.3906C54.3203 37.3906 55.25 37.7396 55.9688 38.4375C56.6927 39.1354 57.0964 40.0833 57.1797 41.2812L57.1953 41.8594C57.1953 43.1562 56.8333 44.1979 56.1094 44.9844C55.3854 45.7656 54.4141 46.1562 53.1953 46.1562C51.9766 46.1562 51.0026 45.7656 50.2734 44.9844C49.5495 44.2031 49.1875 43.1406 49.1875 41.7969V41.6953ZM51.4453 41.8594C51.4453 42.6615 51.5964 43.276 51.8984 43.7031C52.2005 44.125 52.6328 44.3359 53.1953 44.3359C53.7422 44.3359 54.1693 44.1276 54.4766 43.7109C54.7839 43.2891 54.9375 42.6172 54.9375 41.6953C54.9375 40.9089 54.7839 40.2995 54.4766 39.8672C54.1693 39.4349 53.737 39.2188 53.1797 39.2188C52.6276 39.2188 52.2005 39.4349 51.8984 39.8672C51.5964 40.2943 51.4453 40.9583 51.4453 41.8594ZM62.7812 38.0156C63.8646 38.0156 64.7292 38.375 65.375 39.0938C66.0208 39.8125 66.3438 40.7891 66.3438 42.0234V42.1328C66.3438 43.3516 65.9844 44.3281 65.2656 45.0625C64.5469 45.7969 63.5807 46.1641 62.3672 46.1641C61.1484 46.1641 60.1771 45.7682 59.4531 44.9766C58.7344 44.1797 58.375 43.099 58.375 41.7344V41.3594C58.3854 39.4583 58.7057 37.9714 59.3359 36.8984C59.9714 35.8203 60.9245 35.1406 62.1953 34.8594C62.862 34.7135 63.2917 34.5703 63.4844 34.4297C63.6771 34.2839 63.7734 34.0833 63.7734 33.8281H65.6016C65.6016 34.6458 65.3802 35.2604 64.9375 35.6719C64.5 36.0833 63.7188 36.401 62.5938 36.625C61.9271 36.7604 61.401 37.0234 61.0156 37.4141C60.6302 37.8047 60.3698 38.3542 60.2344 39.0625C60.9531 38.3646 61.8021 38.0156 62.7812 38.0156ZM62.3516 39.8438C61.8151 39.8438 61.3932 40.0234 61.0859 40.3828C60.7839 40.7422 60.6328 41.3255 60.6328 42.1328C60.6328 42.8516 60.7812 43.401 61.0781 43.7812C61.375 44.1562 61.8047 44.3438 62.3672 44.3438C62.9141 44.3438 63.3359 44.1589 63.6328 43.7891C63.9297 43.4193 64.0807 42.875 64.0859 42.1562V41.9688C64.0859 41.276 63.9323 40.75 63.625 40.3906C63.3229 40.026 62.8984 39.8438 62.3516 39.8438ZM72.6484 37.5469H74.9062V46H72.6484V40.7812L69.8203 46H67.5547V37.5469H69.8203V42.7578L72.6484 37.5469ZM83.9844 37.5469V46H81.7266V39.375H79.7344L79.5938 41.9844C79.5052 43.375 79.2318 44.388 78.7734 45.0234C78.3151 45.6589 77.6328 45.9844 76.7266 46H75.9609L75.9375 44.1641L76.2188 44.1406C76.625 44.1094 76.9219 43.8698 77.1094 43.4219C77.2969 42.974 77.4141 42.2109 77.4609 41.1328L77.6172 37.5469H83.9844ZM90.8203 37.5469H93.0781V46H90.8203V40.7812L87.9922 46H85.7266V37.5469H87.9922V42.7578L90.8203 37.5469ZM103.883 37.5469H106.141V46H103.883V40.7812L101.055 46H98.7891V37.5469H101.055V42.7578L103.883 37.5469ZM112.305 40.0391C112.305 39.7422 112.206 39.513 112.008 39.3516C111.815 39.1849 111.539 39.1016 111.18 39.1016C110.81 39.1016 110.508 39.1797 110.273 39.3359C110.044 39.487 109.93 39.7031 109.93 39.9844H107.672C107.672 39.2188 107.99 38.5964 108.625 38.1172C109.26 37.638 110.073 37.3984 111.062 37.3984C112.151 37.3984 113.005 37.612 113.625 38.0391C114.25 38.4661 114.562 39.0729 114.562 39.8594C114.562 40.2344 114.448 40.5807 114.219 40.8984C113.995 41.2109 113.677 41.4609 113.266 41.6484C114.229 41.987 114.711 42.6406 114.711 43.6094C114.711 44.3854 114.378 45.0052 113.711 45.4688C113.049 45.9271 112.167 46.1562 111.062 46.1562C110.036 46.1562 109.193 45.9167 108.531 45.4375C107.87 44.9583 107.539 44.3125 107.539 43.5H109.797C109.797 43.7865 109.924 44.0182 110.18 44.1953C110.435 44.3724 110.768 44.4609 111.18 44.4609C111.581 44.4609 111.893 44.3672 112.117 44.1797C112.341 43.9922 112.453 43.7474 112.453 43.4453C112.453 43.0755 112.346 42.8125 112.133 42.6562C111.919 42.4948 111.599 42.4141 111.172 42.4141H109.945V40.9453H111.25C111.953 40.9245 112.305 40.6224 112.305 40.0391ZM129.148 42.2109C129.06 43.4349 128.607 44.3984 127.789 45.1016C126.977 45.8047 125.904 46.1562 124.57 46.1562C123.112 46.1562 121.964 45.6667 121.125 44.6875C120.292 43.7031 119.875 42.3542 119.875 40.6406V39.9453C119.875 38.8516 120.068 37.888 120.453 37.0547C120.839 36.2214 121.388 35.5833 122.102 35.1406C122.82 34.6927 123.654 34.4688 124.602 34.4688C125.914 34.4688 126.971 34.8203 127.773 35.5234C128.576 36.2266 129.039 37.2135 129.164 38.4844H126.82C126.763 37.75 126.557 37.2188 126.203 36.8906C125.854 36.5573 125.32 36.3906 124.602 36.3906C123.82 36.3906 123.234 36.6719 122.844 37.2344C122.458 37.7917 122.26 38.6589 122.25 39.8359V40.6953C122.25 41.9245 122.435 42.8229 122.805 43.3906C123.18 43.9583 123.768 44.2422 124.57 44.2422C125.294 44.2422 125.833 44.0781 126.188 43.75C126.547 43.4167 126.753 42.9036 126.805 42.2109H129.148ZM133.023 34.625V44.1172H136.18V34.625H138.531V44.1172H141.656V34.625H144V46H130.672V34.625H133.023ZM152.594 43.6562H148.484L147.703 46H145.211L149.445 34.625H151.617L155.875 46H153.383L152.594 43.6562ZM149.117 41.7578H151.961L150.531 37.5L149.117 41.7578Z" fill="#002664"/>
</svg>
