<svg width="30" height="30" viewBox="0 0 30 30" fill="none" xmlns="http://www.w3.org/2000/svg">
<path d="M24.375 27.5C25.4088 27.5 26.25 26.6588 26.25 25.625V21.25C26.25 20.2162 25.4088 19.375 24.375 19.375C22.9125 19.375 21.475 19.145 20.1 18.6912C19.7713 18.5875 19.4206 18.5749 19.0854 18.6548C18.7501 18.7347 18.4428 18.9041 18.1962 19.145L16.3962 20.945C13.2851 19.256 10.73 16.7018 9.04 13.5913L10.825 11.795C11.34 11.3175 11.525 10.5912 11.305 9.8925C10.8522 8.51537 10.6226 7.07466 10.625 5.625C10.625 4.59125 9.78375 3.75 8.75 3.75H4.375C3.34125 3.75 2.5 4.59125 2.5 5.625C2.5 17.6875 12.3125 27.5 24.375 27.5ZM4.375 5H8.75C8.91576 5 9.07473 5.06585 9.19194 5.18306C9.30915 5.30027 9.375 5.45924 9.375 5.625C9.375 7.22125 9.625 8.78875 10.1163 10.275C10.1523 10.3829 10.1566 10.4988 10.1284 10.609C10.1002 10.7192 10.0409 10.8189 9.9575 10.8962L7.5125 13.3537C9.55875 17.3887 12.5812 20.4112 16.635 22.475L19.0713 20.0375C19.1544 19.9552 19.2583 19.8971 19.3719 19.8694C19.4855 19.8416 19.6046 19.8453 19.7162 19.88C21.2113 20.375 22.7787 20.625 24.375 20.625C24.7188 20.625 25 20.9062 25 21.25V25.625C25 25.9688 24.7188 26.25 24.375 26.25C13.0025 26.25 3.75 16.9975 3.75 5.625C3.75 5.45924 3.81585 5.30027 3.93306 5.18306C4.05027 5.06585 4.20924 5 4.375 5Z" fill="#BB133E"/>
</svg>
