<svg width="64" height="61" viewBox="0 0 64 61" fill="none" xmlns="http://www.w3.org/2000/svg">
<path d="M19.1468 29.5083L17.6767 26.9628H14.7397L16.2077 24.4172L14.7397 21.8728H17.6767L19.1468 19.3273L20.6159 21.8728H23.5539L22.086 24.4172L23.5539 26.9628H20.6159L19.1468 29.5083Z" fill="#212B60"/>
<path d="M32.0636 29.5083L30.5945 26.9628H27.6565L29.1255 24.4172L27.6565 21.8728H30.5945L32.0636 19.3273L33.5326 21.8728H36.4707L35.0027 24.4172L36.4707 26.9628H33.5326L32.0636 29.5083Z" fill="#212B60"/>
<path d="M44.9796 29.5083L43.5106 26.9628H40.5725L42.0405 24.4172L40.5725 21.8728H43.5106L44.9796 19.3273L46.4486 21.8728H49.3867L47.9187 24.4172L49.3867 26.9628H46.4486L44.9796 29.5083Z" fill="#212B60"/>
<path d="M12.4727 18.1799L11.0037 15.6344H8.06348L9.53358 13.09L8.06348 10.5444H11.0037L12.4727 7.99998L13.9417 10.5444H16.8798L15.4108 13.09L16.8798 15.6344H13.9417L12.4727 18.1799Z" fill="#212B60"/>
<path d="M25.5585 18.1799L24.0883 15.6344H21.1514L22.6204 13.09L21.1514 10.5444H24.0883L25.5585 7.99998L27.0275 10.5444H29.9666L28.4976 13.09L29.9666 15.6344H27.0275L25.5585 18.1799Z" fill="#212B60"/>
<path d="M38.6463 18.1799L37.1762 15.6344H34.2393L35.7061 13.09L34.2393 10.5444H37.1762L38.6463 7.99998L40.1154 10.5444H43.0523L41.5844 13.09L43.0523 15.6344H40.1154L38.6463 18.1799Z" fill="#212B60"/>
<path d="M51.732 18.1799L50.263 15.6344H47.325L48.794 13.09L47.325 10.5444H50.263L51.732 7.99998L53.2011 10.5444H56.1402L54.6712 13.09L56.1402 15.6344H53.2011L51.732 18.1799Z" fill="#212B60"/>
<path d="M36.2524 52.9989V32.8799H42.8846L44.6924 37.558L46.3969 42.2694L47.9584 37.7967L49.9082 32.8799H56.1521V52.9989H51.0793V43.6105L49.3393 48.5757L47.9584 52.9989H44.4461L43.275 48.5273L41.7145 43.6105V52.9989H36.2524ZM29.0181 32.8799H34.0908V53H29.0181V32.8799Z" fill="#212B60"/>
<path d="M8 38.6914H17.3637L12.7362 43.0199L8 47.185V52.9988H26.7296V47.185H21.6568L16.8615 47.1754L21.5675 43.0081L26.7296 38.6914V32.8798H8V38.6914Z" fill="#212B60"/>
</svg>
