<svg width="162" height="60" viewBox="0 0 162 60" fill="none" xmlns="http://www.w3.org/2000/svg">
<path d="M116.308 16.7141C113.07 16.7141 110.109 17.7719 107.971 19.6933C105.398 22.0056 104.038 25.5476 104.038 29.9365C104.038 37.2323 110.056 41.5925 115.874 41.5925C123.113 41.5925 126.775 35.8723 126.775 34.7095C126.775 34.0358 126.33 33.9638 126.138 33.9638C125.581 33.9638 125.11 34.4817 124.731 34.8977C124.653 34.9819 124.579 35.0626 124.509 35.1343C122.518 37.1636 119.969 38.327 117.512 38.327C113.364 38.327 109.991 33.8755 109.991 28.4036C109.991 21.9322 112.31 18.7872 117.078 18.7872C119.973 18.7872 122.679 20.784 124.698 24.4098C124.715 24.4399 124.735 24.4778 124.759 24.5229C124.971 24.927 125.325 25.6045 125.835 25.6045C126.341 25.6045 126.606 25.0572 126.606 24.5171C126.606 24.2637 126.551 23.9169 126.491 23.5498C126.444 23.2735 126.4 22.989 126.371 22.7164L125.866 18.0589C125.795 17.6865 125.535 17.4633 125.167 17.4633C124.527 17.4633 124.306 17.8628 124.145 18.1547C124.002 18.4154 123.934 18.5206 123.696 18.5206C123.448 18.5206 122.919 18.3144 122.307 18.075C120.918 17.5335 118.818 16.7141 116.308 16.7141ZM91.1545 16.7141C87.1934 16.7141 83.9702 19.8315 83.9702 23.6641C83.9702 29.1035 88.2641 30.6242 91.7155 31.8469C94.3735 32.788 96.6708 33.602 96.6708 35.8337C96.6708 38.0042 94.9922 39.5183 92.5928 39.5183C89.3556 39.5183 87.0051 36.9754 85.8851 34.5952C85.839 34.4962 85.7952 34.3805 85.7501 34.2593C85.5499 33.7304 85.278 33.0081 84.5474 33.0081C83.6313 33.0081 83.5605 33.6052 83.5605 33.7884C83.5605 34.0366 83.6471 34.3501 83.7232 34.6264C83.7545 34.7402 83.7849 34.846 83.8063 34.945L85.0079 39.6914C85.1749 40.2728 85.7625 40.3762 86.1149 40.4383C86.1592 40.4459 86.2005 40.453 86.2419 40.4613C86.8809 40.5862 87.514 40.7427 88.128 40.8942C89.5101 41.2369 90.9434 41.5914 92.4889 41.5914C97.4126 41.5914 100.46 37.5412 100.46 33.7884C100.46 28.3246 96.3836 26.9391 92.7844 25.7164C90.0887 24.8004 87.7609 24.008 87.7609 21.6522C87.7609 19.7699 89.5891 18.786 91.3946 18.786C93.8457 18.786 96.6701 20.9128 97.4362 23.3374L97.4823 23.4817C97.7394 24.2862 97.9433 24.9211 98.7197 24.9211C99.3077 24.9211 99.6731 24.5317 99.6731 23.903C99.6731 23.7848 99.6382 23.5215 99.5658 22.9888C99.4084 21.8201 99.1446 19.8647 99.1941 18.4825C99.1941 18.0555 99.1015 17.566 98.3768 17.566C98.1752 17.566 97.9161 17.6788 97.6161 17.8095C97.3768 17.9137 97.0816 18.0439 96.9397 18.0439C96.5541 18.0439 96.0582 17.8575 95.4288 17.6225C94.4027 17.2391 92.9954 16.7141 91.1544 16.7141H91.1545ZM49.6047 17.0119C49.1836 17.0119 49.0114 17.2155 49.0114 17.7148C49.0114 18.2652 49.3941 18.4455 50.1587 18.8045C50.3183 18.8784 50.4971 18.9621 50.6966 19.0596C51.866 19.6381 52.2815 21.4151 52.2815 22.7626V35.798C52.2815 37.7704 51.7824 38.6444 50.146 39.5391L50.0317 39.6002C49.5574 39.8536 49.1475 40.0724 49.1475 40.6737C49.1475 41.377 49.6897 41.3778 50.0133 41.3778C50.6183 41.3778 51.2283 41.3069 51.8186 41.2382C52.4 41.1709 53.0031 41.1008 53.5904 41.1008C54.1784 41.1008 54.7797 41.1709 55.3611 41.2382C55.9521 41.3069 56.5614 41.3778 57.1664 41.3778C57.4863 41.3778 58.2365 41.3778 58.2365 40.6737C58.2365 40.0081 57.747 39.7319 57.2195 39.531C54.7898 38.6024 54.4561 36.7057 54.4561 34.7961V25.6668C54.4561 25.0226 54.5293 25.0227 54.5773 25.0227C54.6281 25.0227 54.786 25.1081 55.1221 25.9023L61.7651 40.5664L61.7846 40.6054C61.953 40.9482 62.1635 41.3776 62.6503 41.3776C63.0514 41.3776 63.4292 41.0238 63.7735 40.3249L70.5526 26.1837L70.6992 25.8824C70.9186 25.434 71.1262 25.0082 71.2532 24.907C71.2893 25.0326 71.3225 25.3318 71.3225 25.7012V36.7662C71.3225 38.6773 71.2402 39.1984 70.4926 39.533C69.8462 39.8101 69.4479 40.013 69.4479 40.6735C69.4479 41.3495 70.1923 41.3765 70.892 41.3765H70.9762C71.6559 41.3077 72.347 41.2726 73.017 41.2379C73.6819 41.2048 74.3712 41.1693 75.0509 41.1006C75.7298 41.1693 76.4168 41.2047 77.0824 41.2379C77.7517 41.2728 78.4424 41.3077 79.1221 41.3765H79.1303H79.1374C79.8473 41.3765 80.6507 41.3765 80.6507 40.6724C80.6507 39.9964 80.2256 39.7985 79.5333 39.5296C76.9329 38.5145 76.8012 36.727 76.8012 33.8955V21.6207C76.8012 19.615 77.3438 19.3432 78.4726 18.9612L78.6538 18.8977C79.623 18.5505 80.2082 18.34 80.2074 17.7261C80.2328 17.4476 80.1897 17.2548 80.0805 17.1351C80.0066 17.0539 79.9047 17.0104 79.785 17.0104C79.2693 17.0104 78.7463 17.0447 78.2417 17.0797C77.7423 17.1128 77.226 17.149 76.7192 17.149C76.2139 17.149 75.6961 17.1129 75.1967 17.0797C74.6921 17.0448 74.1697 17.0104 73.6534 17.0104C73.2752 17.0104 73.1029 17.1737 72.7357 17.8866L65.279 32.3717C65.1874 32.538 65.103 32.7033 65.0239 32.8577C64.8717 33.1547 64.6862 33.516 64.5887 33.6173C64.5067 33.4894 64.348 33.1488 64.1374 32.7019C64.0118 32.4337 63.8577 32.1075 63.6722 31.7219L57.0293 17.6823C56.7448 17.1038 56.4149 17.0104 55.7353 17.0104C55.2197 17.0104 54.6985 17.0447 54.1932 17.0797C53.6938 17.1128 53.1767 17.149 52.6707 17.149C52.1646 17.149 51.6476 17.1129 51.1482 17.0797C50.6429 17.0448 50.122 17.0104 49.6049 17.0104L49.6047 17.0119Z" fill="#0B2245"/>
<path fill-rule="evenodd" clip-rule="evenodd" d="M31.2221 31.0682C30.5572 31.4435 29.7564 31.4848 29.0568 31.1805C27.9952 30.7505 26.8095 30.7476 25.7465 31.1746C25.2308 31.3822 24.6775 31.4848 24.1219 31.4768C23.5657 31.485 23.0138 31.3822 22.4967 31.1746C21.4337 30.7476 20.248 30.7505 19.1871 31.1805C18.4876 31.4848 17.686 31.4435 17.0211 31.0682L17.3994 30.427C17.8618 30.6804 18.4152 30.704 18.8975 30.4927V24.1654H21.263V24.7726C21.3391 24.6892 21.4211 24.6123 21.5076 24.5414C22.5514 23.683 24.0917 23.8359 24.9472 24.8827C25.3934 24.3479 26.0405 24.0235 26.7349 23.9903C28.1082 23.9209 29.2769 24.9824 29.3464 26.3609V30.4942C29.828 30.704 30.3799 30.6804 30.8431 30.427L31.2213 31.0682H31.2221ZM22.9599 30.526V26.7429C22.9511 26.2752 22.5669 25.9022 22.1015 25.9117C21.6989 25.9182 21.3569 26.2102 21.2859 26.6076V30.1063C21.8599 30.1736 22.4221 30.314 22.9599 30.526ZM26.958 30.082V26.6978C26.9137 26.2346 26.5044 25.8948 26.0427 25.9383C25.6246 25.9785 25.2995 26.3225 25.2833 26.7429V30.5525C25.8225 30.3354 26.384 30.178 26.958 30.082ZM29.0804 33.7033C29.0645 32.9956 28.6926 32.3455 28.092 31.9717C27.2276 31.3489 26.0486 31.4124 25.2537 32.1224C24.775 32.5427 24.4891 33.1419 24.4603 33.7794C24.3739 34.4177 24.4479 35.0692 24.676 35.6721C24.9331 36.2343 25.4096 36.6657 25.9932 36.8659C26.5598 37.0853 27.1937 37.0461 27.7308 36.7588C28.4894 36.399 28.9992 35.6617 29.0694 34.8233H27.6096C27.5165 35.1283 27.351 35.3729 27.1442 35.5095C26.6773 35.8191 26.1292 35.5095 25.9201 34.8233C25.7117 34.1348 25.9201 33.3266 26.3855 33.017C26.8531 32.7082 27.3998 33.017 27.6096 33.7033H29.0804ZM20.7496 35.4128C20.7555 35.5842 20.8619 35.7356 21.0192 35.8006C21.283 35.9085 21.5785 35.9085 21.8422 35.8006C22.0003 35.7356 22.1059 35.5842 22.1133 35.4128C22.1056 35.2517 22.0114 35.1069 21.8681 35.0367C21.7506 34.9782 21.6265 34.9348 21.5002 34.906C21.3347 34.8682 21.1699 34.8314 21.0044 34.7974C20.918 34.7802 20.8323 34.7661 20.7452 34.7548C20.2583 34.6891 19.8025 34.4823 19.4324 34.1587C19.3445 34.053 19.2713 33.9348 19.2145 33.8085C18.8768 33.0528 19.2145 32.1656 19.9672 31.8272C20.8841 31.4187 21.9272 31.4076 22.8513 31.7959C23.4047 31.9909 23.7785 32.5132 23.7873 33.1027H22.2042C22.1569 32.8693 21.9692 32.6912 21.7336 32.6609C21.5289 32.6101 21.314 32.6314 21.1241 32.723C20.9069 32.8161 20.7998 33.0621 20.8759 33.2844C20.9949 33.4891 21.1995 33.6287 21.4337 33.662C21.8791 33.724 22.3194 33.826 22.7479 33.9663C22.9304 34.0024 23.1025 34.0778 23.2532 34.185C23.398 34.2965 23.5191 34.4339 23.6137 34.5891C24.037 35.2887 23.8139 36.1995 23.1165 36.6236C22.2647 37.052 21.28 37.1326 20.3706 36.8474C19.6821 36.7189 19.1835 36.1146 19.1864 35.4128H20.7496Z" fill="#0B2245"/>
<path d="M29.2731 21.29C29.1256 21.2717 28.9749 21.3408 28.8968 21.4782C28.7912 21.6614 28.8531 21.8935 29.0365 21.9999C29.2182 22.1063 29.4498 22.0425 29.5547 21.8603C29.6604 21.6778 29.5991 21.4434 29.4174 21.3385C29.3719 21.3119 29.3222 21.296 29.2731 21.2901V21.29ZM19.0022 21.2959C18.9531 21.3018 18.9045 21.3178 18.8591 21.3444C18.6766 21.4508 18.6138 21.6833 18.7194 21.8672C18.8251 22.0483 19.0583 22.1114 19.24 22.0058C19.4217 21.8994 19.4846 21.6677 19.3797 21.4852C19.3015 21.3483 19.1496 21.2777 19.0022 21.2959V21.2959ZM13.9372 30.0732C13.7267 30.0732 13.5563 30.2447 13.5563 30.4553C13.5563 30.6658 13.7267 30.8373 13.9372 30.8373C14.147 30.8373 14.3169 30.6658 14.3169 30.4553C14.3169 30.2447 14.147 30.0732 13.9372 30.0732ZM34.307 30.1098C34.0971 30.1098 33.9272 30.2813 33.9272 30.4919C33.9272 30.7032 34.0971 30.874 34.307 30.874C34.5182 30.874 34.6879 30.7032 34.6879 30.4919C34.6879 30.2813 34.5182 30.1098 34.307 30.1098ZM19.0888 38.9471C18.9414 38.9281 18.7906 38.9991 18.7113 39.1364C18.6064 39.3189 18.6693 39.5521 18.851 39.657C19.0327 39.7633 19.2667 39.7007 19.3716 39.5173C19.4772 39.3348 19.4141 39.1009 19.2319 38.9967C19.1864 38.9701 19.1379 38.9536 19.0888 38.9471ZM29.1831 38.953C29.134 38.9595 29.0854 38.9748 29.0399 39.0014C28.8582 39.1063 28.7946 39.3407 28.9003 39.5232C29.0059 39.7064 29.238 39.7696 29.4197 39.664C29.6029 39.5576 29.6661 39.3235 29.5605 39.1411C29.4813 39.0037 29.3301 38.9344 29.1831 38.9529V38.953Z" fill="#0B2245"/>
<path d="M34.9267 34.6806L37.6645 38.3544L34.1532 36.3088C34.4679 35.7629 34.705 35.2664 34.9267 34.6806ZM33.6982 30.4904C33.6982 30.1535 33.9707 29.8795 34.3061 29.8795C34.6438 29.8795 34.9163 30.1535 34.9163 30.4904C34.9163 30.8287 34.6438 31.1028 34.3061 31.1028C33.9707 31.1028 33.6982 30.8287 33.6982 30.4904ZM37.6645 22.6449L34.1518 24.6912C33.8289 24.135 33.5283 23.6895 33.1338 23.2056L37.6645 22.6449ZM24.1218 39.3332C19.2579 39.3332 15.3167 35.3787 15.3167 30.5C15.3167 25.6213 19.2579 21.6661 24.1218 21.6661C28.985 21.6661 32.9269 25.6213 32.9269 30.5C32.9269 35.3787 28.985 39.3332 24.1218 39.3332ZM29.9143 40.561C30.4595 40.2463 30.9123 39.936 31.3962 39.5393L31.9547 44.1048L29.9143 40.561ZM29.5346 39.8614C29.2435 40.0306 28.8697 39.9279 28.7035 39.6376C28.5343 39.3443 28.6348 38.9697 28.9259 38.8013C29.2176 38.6321 29.5893 38.7341 29.7584 39.0259C29.9268 39.3177 29.8271 39.6922 29.5346 39.8614ZM24.124 48.7537C24.124 48.7537 24.1181 42.1176 24.124 42.1176C24.7298 42.1176 25.34 42.0667 25.9206 41.9772L24.124 48.7537ZM18.514 39.02C18.6816 38.7259 19.054 38.6277 19.3465 38.7954C19.6376 38.9646 19.7373 39.3399 19.5689 39.6309C19.4012 39.9235 19.0281 40.0232 18.7371 39.8547C18.4452 39.6856 18.3455 39.311 18.514 39.02ZM16.294 44.1055L18.3344 40.561C18.8774 40.8772 19.3739 41.1143 19.9567 41.3374L16.294 44.1055ZM10.5835 38.3559L14.0955 36.3095C14.4087 36.8554 14.719 37.3098 15.1143 37.7951L10.5835 38.3559ZM10.5835 22.6449L14.0955 24.6927C13.7808 25.2372 13.5437 25.7343 13.3213 26.3202L10.5835 22.6449ZM14.5461 30.4542C14.5461 30.7918 14.2728 31.0651 13.9367 31.0651C13.5998 31.0651 13.3272 30.7918 13.3272 30.4542C13.3272 30.1159 13.5998 29.8425 13.9367 29.8425C14.2728 29.8425 14.5461 30.1159 14.5461 30.4542ZM18.3337 20.4405C17.7892 20.7552 17.3356 21.0655 16.8525 21.4607L16.294 16.916L18.3337 20.4405ZM18.7445 21.1445C19.0355 20.9761 19.4086 21.0758 19.577 21.3684C19.7454 21.6609 19.645 22.034 19.3532 22.2031C19.0628 22.3723 18.6898 22.2726 18.5214 21.98C18.3529 21.6868 18.4534 21.3122 18.7445 21.1445ZM24.124 12.2463V18.884C23.1193 18.884 22.3266 19.0214 22.3266 19.0214L24.124 12.2463ZM29.7533 21.9749C29.5855 22.2674 29.2132 22.3671 28.9214 22.1987C28.6296 22.0296 28.5299 21.6558 28.6983 21.3632C28.8668 21.0714 29.2398 20.9709 29.5309 21.1393C29.8227 21.3078 29.9217 21.6824 29.7533 21.9749ZM31.9525 16.916L29.9135 20.439C29.3691 20.1236 28.8756 19.885 28.2927 19.6618L31.9525 16.916ZM5.92868 30.5C5.92868 30.5 12.5515 30.4941 12.5515 30.5C12.5515 31.1088 12.5988 31.7197 12.6897 32.3033L5.92868 30.5ZM42.3193 30.5C42.3193 30.5 35.6964 30.5059 35.6964 30.5C35.6964 29.892 35.6498 29.2803 35.5583 28.6975L42.3193 30.5ZM35.3079 33.503L46.5509 30.5L35.3131 27.4919L39.8918 21.3639L32.3123 22.2888L33.2313 14.6746L27.1225 19.2733L24.124 8L21.1277 19.2777L15.0182 14.682L15.935 22.2852L8.34953 21.3639L12.9401 27.497L1.69714 30.5L12.9386 33.5074L8.34953 39.6354L15.9372 38.7119L15.0182 46.3262L21.1254 41.7334L24.124 53L27.1166 41.7201L33.2298 46.3262L32.3138 38.7075L39.8992 39.6354L35.3079 33.503Z" fill="#0B2245"/>
</svg>
