<svg width="262" height="60" viewBox="0 0 262 60" fill="none" xmlns="http://www.w3.org/2000/svg">
<path fill-rule="evenodd" clip-rule="evenodd" d="M90.6056 40.4135V20.5898H95.8806L102.565 35.4038L109.149 20.5898H114.203V40.4135H109.853V28.8811L104.834 40.4135H100.197L95.1142 28.9439V40.4135H90.6056Z" fill="#0A0B09"/>
<path fill-rule="evenodd" clip-rule="evenodd" d="M131.708 32.7382L128.068 24.3353L124.512 32.7382H131.708ZM121.259 40.4135H116.143L124.936 20.5898H131.234L140.09 40.4135H135.041L133.298 36.4646H122.948L121.259 40.4135Z" fill="#0A0B09"/>
<path fill-rule="evenodd" clip-rule="evenodd" d="M142.13 40.4135V20.5898H161.057V24.5536H146.701V28.4908H159.01V32.3595H146.701V36.4481H161.092V40.4135H142.13Z" fill="#0A0B09"/>
<path fill-rule="evenodd" clip-rule="evenodd" d="M169.41 29.6922H179.355V24.5536H169.41V29.6922ZM164.774 40.4135V20.5898H180.612C182.728 20.5898 183.957 21.8144 183.957 23.9144V30.5744C183.957 32.1065 182.6 33.4914 179.97 33.4914C179.821 33.4988 179.669 33.4914 179.513 33.4914L184.123 40.4135H179.035L174.663 33.6353H169.41V40.4135H164.774Z" fill="#0A0B09"/>
<path fill-rule="evenodd" clip-rule="evenodd" d="M192.297 40.4251H190.727C188.679 40.4251 187.692 39.2411 187.692 37.5172V34.9276H192.297V36.4614H202.08V32.4034C202.08 32.4034 192.649 32.4034 190.858 32.4034C189.066 32.4034 187.776 31.1987 187.776 29.5269V23.6417C187.776 21.8607 189.18 20.6023 190.889 20.6023C192.598 20.6023 203.718 20.6023 203.718 20.6023C205.452 20.6023 206.652 21.8963 206.652 23.7673C206.652 25.6359 206.652 26.1328 206.652 26.1328H202.08V24.566H192.297V28.4702H203.487C205.139 28.4702 206.652 29.5633 206.652 31.6675V37.3254C206.652 39.2527 205.583 40.4251 203.583 40.4251C201.584 40.4251 192.297 40.4251 192.297 40.4251Z" fill="#0A0B09"/>
<path fill-rule="evenodd" clip-rule="evenodd" d="M211.07 40.4249V20.5996H215.77V28.5287L224.722 20.5996H231.085L220.406 29.8086L231.469 40.4249H224.881L215.77 31.4077V40.4249H211.07Z" fill="#0A0B09"/>
<path fill-rule="evenodd" clip-rule="evenodd" d="M71.6419 47.8696C71.6419 50.7031 69.3459 53 66.5124 53H34.1312C31.2969 53 29 50.7031 29 47.8696V13.1312C29 10.2977 31.2969 8 34.1312 8H66.5124C69.3459 8 71.6419 10.2977 71.6419 13.1312V47.8696Z" fill="#42B0D5"/>
<path fill-rule="evenodd" clip-rule="evenodd" d="M57.119 29.3326L65.5335 18.78L65.507 18.7461L53.3463 24.6024L50.3425 11.4429H50.3003L47.2965 24.6024L35.1358 18.7461L35.1093 18.78L43.5246 29.3326L31.363 35.1889L31.3738 35.2302H44.8706L41.8668 48.3906L41.9049 48.4079L50.3218 37.8553L58.7371 48.4079L58.7751 48.3889L55.773 35.2302H69.2698L69.2798 35.1889L57.119 29.3326Z" fill="#FFFFFE"/>
</svg>
