<svg width="95" height="60" viewBox="0 0 95 60" fill="none" xmlns="http://www.w3.org/2000/svg">
<path d="M74.7453 33.2355C69.7561 33.2355 67.9761 30.3028 67.9761 27.5561C67.9761 24.0046 70.6425 21.8838 75.1107 21.8838C79.8141 21.8838 82.4263 23.858 82.4263 27.438C82.4263 31.1897 80.0348 33.0853 75.118 33.2283L74.7453 33.2355ZM75.1071 24.1334C72.5347 24.1334 71.9956 25.9216 71.9956 27.4488C71.9956 29.6984 73.0376 30.7463 75.2518 30.7463C77.466 30.7463 78.508 29.6519 78.508 27.4058C78.508 24.9274 77.6722 24.1334 75.0745 24.1334H75.1071Z" fill="#154B83"/>
<path d="M60.2588 32.7957V32.7742C55.1611 32.5024 54.0793 29.7879 54.0757 27.549C54.0757 26.0362 54.5352 24.8202 55.4541 23.9332C56.5685 22.8603 58.3268 22.3167 60.6857 22.3167H61.1199H66.3479V24.4625H61.1669C60.1503 24.4625 59.3977 24.6986 58.931 25.1778C58.4643 25.6571 58.2327 26.3974 58.2581 27.4131V27.5097C58.2581 28.4074 58.2581 30.2779 61.3044 30.496L66.3442 30.5604V32.7957H60.2588Z" fill="#154B83"/>
<path d="M41.3838 32.6525V30.5067H47.0133C47.3751 30.5067 48.0336 30.453 48.3846 30.099C48.4646 30.0134 48.5255 29.9123 48.5636 29.802C48.6016 29.6917 48.6158 29.5748 48.6052 29.4588C48.5835 28.7435 48.1349 28.4073 47.1942 28.4073H44.7666C43.37 28.3751 42.3932 28.0675 41.7817 27.4667C41.2644 26.9552 41.022 26.2686 41.022 25.2958C41.022 23.1713 42.3064 22.1807 45.0596 22.1807H51.9917V24.3265H45.9279C45.5972 24.2874 45.2632 24.3674 44.9873 24.5519C44.8096 24.7609 44.7225 25.0308 44.7449 25.3029C44.7304 25.4244 44.7408 25.5475 44.7757 25.6649C44.8105 25.7823 44.8689 25.8915 44.9475 25.986C45.2007 26.2399 45.7109 26.2614 46.2572 26.2614H48.0228C50.0669 26.2614 51.174 26.9195 51.7456 27.4703C52.0222 27.7301 52.2421 28.0431 52.3921 28.3899C52.542 28.7368 52.6187 29.1102 52.6176 29.4874C52.641 29.8925 52.5813 30.2981 52.442 30.6798C52.3028 31.0614 52.0868 31.4113 51.8072 31.7084C51.1812 32.3235 50.1899 32.6382 48.8657 32.6382H47.4186H41.3838V32.6525Z" fill="#154B83"/>
<path d="M31.5466 33.2714C26.5574 33.2714 24.7773 30.3387 24.7773 27.5919C24.7773 24.0405 27.4438 21.9197 31.9156 21.9197C36.619 21.9197 39.2348 23.8939 39.2348 27.4739C39.2348 31.2256 36.8433 33.1212 31.9265 33.2642H31.5647L31.5466 33.2714ZM31.9084 24.1693C29.336 24.1693 28.7969 25.9575 28.7969 27.4847C28.7969 29.7342 29.8353 30.7822 32.0531 30.7822C34.2709 30.7822 35.3093 29.6878 35.3093 27.4417C35.3093 24.9632 34.4735 24.1693 31.8758 24.1693H31.9084Z" fill="#154B83"/>
<path d="M17.1831 32.7957V32.7742C12.0854 32.5024 11.0036 29.7879 11 27.549C11 26.0362 11.4595 24.8202 12.3784 23.9332C13.4928 22.8603 15.2475 22.3167 17.6028 22.3167H18.0442H23.2722V24.4625H18.0695C17.071 24.4625 16.3257 24.6986 15.8589 25.1778C15.2077 25.8252 15.2222 26.8194 15.2294 27.3523V27.6706C15.1824 28.5147 15.0847 30.26 18.2359 30.4817L23.2758 30.5461V32.7814L17.1831 32.7957Z" fill="#154B83"/>
<path d="M35.8159 41.5973V35.3242H33.9129V41.5973H35.8159Z" fill="#154B83"/>
<path d="M59.6946 41.7008V35.4277H57.7915V41.7008H59.6946Z" fill="#154B83"/>
<path d="M48.334 41.6545V35.3813H52.397C54.6799 35.5244 55.1575 36.5258 55.1575 37.3412C55.1575 38.4893 54.0033 39.294 52.3463 39.294H50.237V41.6545H48.334ZM52.0243 38.2711C52.7479 38.2711 53.1857 37.9314 53.1857 37.3412C53.1857 36.8119 52.6864 36.4114 52.0243 36.4114H50.2334V38.2711H52.0243Z" fill="#154B83"/>
<path d="M39.1008 41.6974V35.4243H43.1602C45.4431 35.5674 45.9207 36.5688 45.9207 37.3842C45.9207 38.5323 44.763 39.337 43.1095 39.337H41.0003V41.6903L39.1008 41.6974ZM42.7912 38.3141C43.5148 38.3141 43.9489 37.9743 43.9489 37.3842C43.9489 36.8549 43.4496 36.4543 42.7912 36.4543H41.0039V38.3141H42.7912Z" fill="#154B83"/>
<path d="M75.5555 41.6007C74.6046 41.6388 73.6759 41.3106 72.9651 40.6851C72.6649 40.3857 72.4308 40.0281 72.2776 39.6347C72.1244 39.2413 72.0554 38.8208 72.075 38.3997C72.075 36.3361 73.3703 35.2024 75.7183 35.2024H79.358V36.7689H75.1141C74.481 36.8583 73.9926 37.5593 73.9926 38.3997C73.9926 39.3261 74.5642 40.0807 75.2661 40.0807L77.5744 40.0342V38.5106H79.3544V41.5971H75.5555V41.6007Z" fill="#154B83"/>
<path d="M64.7595 41.5973H62.8564V35.3242H64.651L67.6575 39.0437V35.4244H69.5606V41.6975H67.8131L64.7595 37.9636V41.5973Z" fill="#154B83"/>
<path d="M26.0145 39.1332L26.0253 41.5973H24.1187V35.3242H26.0253L26.0036 37.7312L28.8473 37.7848V35.3242H30.7504V41.5973H28.8473V39.1332H26.0145Z" fill="#154B83"/>
<path d="M14.5205 41.6976V40.3564H18.1674C19.1443 40.3206 19.1443 39.9451 19.1443 39.7412C19.1443 39.3836 18.7825 39.1547 18.1602 39.1297H16.5864C15.7325 39.1118 15.1392 38.9258 14.7774 38.561C14.6117 38.3827 14.4851 38.1725 14.4054 37.9435C14.3258 37.7146 14.2947 37.4719 14.3143 37.2306C14.3143 35.9502 15.1211 35.3279 16.7781 35.3279H20.9641V36.6726H17.3461C17.0611 36.6464 16.7765 36.7282 16.5502 36.9015C16.5023 36.9477 16.4652 37.0036 16.4415 37.0653C16.4177 37.1271 16.4079 37.1933 16.4127 37.2592C16.4127 37.7205 16.9409 37.8171 17.3823 37.8171H19.2854C19.8563 37.8091 20.4097 38.0118 20.8375 38.3858C21.0167 38.5712 21.1557 38.7909 21.246 39.0314C21.3362 39.2718 21.3757 39.528 21.3621 39.7842C21.3755 40.0306 21.3381 40.2772 21.2523 40.5089C21.1665 40.7407 21.034 40.9528 20.8628 41.1325C20.3607 41.554 19.7105 41.7622 19.0538 41.7119H18.1747L14.5205 41.6976Z" fill="#154B83"/>
<path d="M73.8986 19.5556C69.2712 12.2525 61.7784 8.06445 53.3449 8.06445C44.64 8.06445 36.6226 12.4635 32.48 19.5771L32.3027 19.8668H35.3129L35.3708 19.7631C39.1588 13.1538 45.5662 9.51292 53.4643 9.51292C60.5627 9.51292 67.7625 13.726 70.9789 19.7559L71.0368 19.8632H74.094L73.8986 19.5556Z" fill="#BD1D21"/>
<path d="M22.7367 19.9096H19.7048L19.9147 19.552C20.2765 18.9332 20.66 18.3324 21.0688 17.7637C25.4357 11.6623 32.7874 8 40.7289 8C49.0249 8 55.9642 11.8697 61.3513 19.5019L61.5901 19.9025H58.3629L58.2905 19.7666C55.6349 14.8132 48.522 9.54861 40.6059 9.54861C36.9874 9.54568 33.4331 10.4936 30.3072 12.2954C27.1813 14.0971 24.596 16.6879 22.8163 19.8023L22.7367 19.9096Z" fill="#154B83"/>
<path d="M59.7595 43.6608H56.9591L56.8976 43.7395C54.958 46.2213 52.4618 48.2238 49.6057 49.5892C46.7497 50.9546 43.6118 51.6456 40.4395 51.6077C33.8548 51.6077 28.3084 48.8896 24.401 43.7395L24.3395 43.6572H21.4885L21.7454 43.9863C23.988 46.8188 26.8588 49.1042 30.1364 50.6662C33.414 52.2283 37.0108 53.0251 40.6493 52.9954C48.1023 52.9954 54.8282 49.8982 59.3651 44.2187C59.4773 44.0792 59.6401 43.8325 59.7595 43.6608Z" fill="#154B83"/>
<path d="M53.2254 52.8953C49.6042 52.9235 46.0247 52.1295 42.7629 50.5743C39.5011 49.0192 36.6441 46.7445 34.412 43.9255L34.2817 43.761H36.9735L37.0061 43.8003C41.022 48.743 46.7529 51.5791 52.7298 51.5791H53.0916C56.2156 51.4822 59.2844 50.74 62.1009 49.4003C64.9173 48.0606 67.4189 46.153 69.4448 43.8003L69.4738 43.7646H72.1619L72.0317 43.9291C69.8002 46.7466 66.9441 49.0202 63.6837 50.5747C60.4232 52.1292 56.8452 52.9231 53.2254 52.8953Z" fill="#E60012" stroke="#E60012" stroke-width="0.5" stroke-miterlimit="10"/>
<path d="M53.2255 52.999C49.587 53.0288 45.9902 52.2319 42.7126 50.6699C39.435 49.1079 36.5641 46.8224 34.3216 43.9899L34.0647 43.6609H37.0133L37.0749 43.736C41.0546 48.6536 46.7746 51.4755 52.719 51.4755H53.0808C56.1971 51.3844 59.2594 50.6482 62.07 49.3145C64.8806 47.9808 67.3769 46.0791 69.3978 43.7324L69.4593 43.6609H72.4044L72.1475 43.9899C69.9031 46.8248 67.0293 49.1117 63.7484 50.6739C60.4674 52.236 56.867 53.0315 53.2255 52.999Z" fill="#BD1D21"/>
</svg>
