<svg width="75" height="45" viewBox="0 0 75 45" fill="none" xmlns="http://www.w3.org/2000/svg">
<path d="M42.0569 4.79641C42.587 4.37886 44.9164 2.305 46.0742 0.885312C46.1579 0.773964 46.1021 0.62086 45.9766 0.579105C39.8809 -1.18855 21.4267 0.523431 12.6668 13.7599C12.5413 13.9409 12.5692 13.9965 12.7087 14.1079C15.7635 9.16683 22.696 5.28356 31.0792 4.47629C34.5246 4.14224 38.0397 4.42061 41.499 5.01911C41.8338 5.04695 41.8198 4.99127 42.0569 4.79641Z" fill="#FF0000"/>
<path d="M33.5203 27.8176H35.9613L31.6511 17.3787H28.4708L24.1606 27.8176H26.5319L27.2294 26.0081H32.8089L33.5203 27.8176ZM28.0803 24.0596L30.0191 19.0071L31.958 24.0596H28.0803Z" fill="#051039"/>
<path d="M17.9255 26.7041L20.5897 22.2641C20.6874 22.097 21.2035 21.2063 21.3709 20.8583H21.3988C21.3709 21.248 21.3709 21.9439 21.3709 22.2641V27.8176H23.6027V17.3787H21.4685L18.079 22.9739L14.6894 17.3787H12.1647V27.8176H14.3965V22.2641C14.3965 21.9439 14.3825 21.2619 14.3686 20.8583H14.3965C14.5639 21.1923 15.08 22.097 15.1776 22.2641L17.8418 26.7041H17.9255Z" fill="#051039"/>
<path d="M68.7688 26.7041L71.4888 22.2641C71.5865 22.097 72.1165 21.2063 72.2839 20.8583H72.3118C72.2839 21.248 72.2839 21.9439 72.2839 22.2641V27.8176H74.5157V17.3787H72.2421L68.8525 22.9739L65.463 17.3787H62.9382V27.8176H65.17V22.2641C65.17 21.9439 65.1561 21.2619 65.1421 20.8583H65.17C65.3374 21.1923 65.8675 22.097 65.9651 22.2641L68.6851 26.7041H68.7688Z" fill="#051039"/>
<path d="M10.9093 24.7555H8.53797V24.8251C8.53797 25.6741 8.07766 25.869 7.0594 25.869H4.79969C3.08399 25.869 2.81896 25.6602 2.81896 23.6699V21.3872C2.81896 19.5361 3.07004 19.3273 4.75785 19.3273H6.97571C7.98002 19.3273 8.42638 19.5082 8.42638 20.3016H11.0627C11.0627 18.0189 10.156 17.2395 7.31048 17.2395H4.35333C1.64727 17.2395 0.587158 18.2556 0.587158 20.8862V24.2127C0.587158 26.7876 1.63332 27.8037 4.29754 27.8037H7.21283C10.0305 27.8037 10.9093 27.0381 10.9093 24.7973V24.7555Z" fill="#051039"/>
<path d="M49.5474 24.7555H47.1761V24.8251C47.1761 25.6741 46.7158 25.869 45.6976 25.869H43.4379C41.7222 25.869 41.4571 25.6602 41.4571 23.6699V21.3872C41.4571 19.5361 41.7082 19.3273 43.396 19.3273H45.6139C46.6182 19.3273 47.0646 19.5082 47.0646 20.3016H49.7009C49.7009 18.0189 48.7942 17.2395 45.9487 17.2395H42.9915C40.2854 17.2395 39.2253 18.2695 39.2253 20.9001V24.2266C39.2253 26.8015 40.2715 27.8037 42.9357 27.8037H45.851C48.6687 27.8037 49.5474 27.0381 49.5474 24.8112V24.7555Z" fill="#051039"/>
<path d="M59.1721 23.7812V24.8808C59.1721 25.688 58.7257 25.869 57.7074 25.869H55.0014C53.2996 25.869 53.0485 25.6741 53.0485 23.7812V21.3872C53.0485 19.5361 53.2996 19.3273 54.9874 19.3273H57.568C58.5723 19.3273 59.0186 19.5082 59.0186 20.3016H61.655C61.655 18.0189 60.7483 17.2395 57.9027 17.2395H54.5969C51.8908 17.2395 50.8307 18.2695 50.8307 20.9001V24.1709C50.8307 26.7876 51.8768 27.8176 54.5132 27.8176H57.7493C60.553 27.8176 61.4178 27.0381 61.4178 24.7694V21.9718H56.1173V23.7812H59.1721Z" fill="#051039"/>
<path d="M32.9902 40.2053C32.4601 40.6228 30.1307 42.6967 28.9729 44.1164C28.8892 44.2277 28.945 44.3808 29.0705 44.4226C35.1662 46.1902 53.6204 44.4643 62.3803 31.2278C62.5058 31.0469 62.4779 30.9912 62.3384 30.8799C59.2836 35.821 52.3511 39.7042 43.9679 40.5115C40.5225 40.8455 37.0074 40.5672 33.5481 39.9687C33.2133 39.9408 33.2273 39.9965 32.9902 40.2053Z" fill="#FF0000"/>
</svg>
