<svg width="318" height="60" viewBox="0 0 318 60" fill="none" xmlns="http://www.w3.org/2000/svg">
<path d="M117.495 39.3613H122.333V30.1471H131.239V39.3613H136.075V18H131.239V26.1979H122.333V18H117.495" fill="#231F20"/>
<path d="M147.822 33.3776C147.822 34.3059 147.698 36.9376 144.278 36.9376C142.861 36.9376 141.596 36.5483 141.596 34.963C141.596 33.4076 142.829 32.9584 144.185 32.6889C145.541 32.4494 147.084 32.4194 147.822 31.7923V33.3776ZM142.091 28.6499C142.244 26.9747 143.324 26.316 144.986 26.316C146.527 26.316 147.822 26.5855 147.822 28.4103C147.822 30.1454 145.326 30.0572 142.644 30.4448C139.934 30.8041 137.221 31.6426 137.221 35.1426C137.221 38.3133 139.625 39.7805 142.644 39.7805C144.586 39.7805 146.621 39.2715 148.007 37.8658C148.038 38.3748 148.161 38.8822 148.316 39.3613H152.753C152.351 38.7325 152.196 37.3268 152.196 35.9211V27.8714C152.196 24.1634 148.378 23.4763 145.201 23.4763C141.628 23.4763 137.961 24.6724 137.715 28.6499" fill="#231F20"/>
<path d="M153.619 44.8062H157.994V37.4467H158.055C159.103 38.9722 160.923 39.7807 162.833 39.7807C167.485 39.7807 169.827 35.9213 169.827 31.7924C169.827 27.3957 167.578 23.4765 162.585 23.4765C160.614 23.4765 158.888 24.2234 157.841 25.8686H157.781V23.894H153.619V44.8062ZM161.662 36.5784C158.827 36.5784 157.841 34.1862 157.841 31.6743C157.841 29.1607 158.767 26.6771 161.631 26.6771C164.436 26.6771 165.452 29.2206 165.452 31.6743C165.452 34.1862 164.528 36.5784 161.662 36.5784Z" fill="#231F20"/>
<path d="M181.015 33.3776C181.015 34.3059 180.893 36.9376 177.471 36.9376C176.054 36.9376 174.789 36.5483 174.789 34.963C174.789 33.4076 176.024 32.9584 177.38 32.6889C178.736 32.4494 180.278 32.4194 181.015 31.7923V33.3776ZM175.284 28.6499C175.437 26.9747 176.517 26.316 178.179 26.316C179.72 26.316 181.015 26.5855 181.015 28.4103C181.015 30.1454 178.519 30.0572 175.837 30.4448C173.127 30.8041 170.415 31.6426 170.415 35.1426C170.415 38.3133 172.818 39.7805 175.837 39.7805C177.78 39.7805 179.814 39.2715 181.201 37.8658C181.231 38.3748 181.355 38.8822 181.508 39.3613H185.946C185.544 38.7325 185.389 37.3268 185.389 35.9211V27.8714C185.389 24.1634 181.568 23.4763 178.398 23.4763C174.821 23.4763 171.154 24.6724 170.906 28.6499" fill="#231F20"/>
<path d="M202.748 23.894H198.587V25.9584H198.524C197.476 24.1635 195.875 23.4748 193.779 23.4748C189.31 23.4748 186.937 27.1262 186.937 31.1336C186.937 35.3806 188.973 38.9123 193.748 38.9123C195.658 38.9123 197.567 38.1337 198.524 36.5185H198.587V38.553C198.615 40.7671 197.507 42.3824 195.072 42.3824C193.533 42.3824 192.207 41.8434 191.805 40.2581H187.462C187.677 43.7881 191.345 45.2253 194.487 45.2253C201.822 45.2253 202.748 40.9168 202.748 38.3733V23.894ZM194.857 35.71C192.177 35.71 191.314 33.2879 191.314 31.0754C191.314 28.7714 192.391 26.6771 194.857 26.6771C197.691 26.6771 198.587 28.9212 198.587 31.4347C198.587 33.6456 197.353 35.71 194.857 35.71ZM203.946 33.0184H213.227V29.369H203.946V33.0184Z" fill="#231F20"/>
<path d="M214.393 39.3613H229.969V35.4121H219.241V18H214.393V39.3613ZM230.986 39.3613H235.35V18H230.986V39.3613Z" fill="#231F20"/>
<path d="M236.333 31.6426C236.333 36.55 239.582 39.7805 244.563 39.7805C249.594 39.7805 252.826 36.55 252.826 31.6426C252.826 26.7052 249.594 23.4747 244.563 23.4747C239.582 23.4747 236.333 26.7052 236.333 31.6426ZM240.715 31.6426C240.715 29.1589 241.614 26.677 244.563 26.677C247.545 26.677 248.444 29.1589 248.444 31.6426C248.444 34.0963 247.545 36.5799 244.563 36.5799C241.614 36.5799 240.715 34.0963 240.715 31.6426Z" fill="#231F20"/>
<path d="M268.202 23.894H263.671L260.189 34.484H260.123L256.508 23.894H251.843L257.44 38.4033C257.94 39.6309 257.44 41.1564 255.925 41.3061C255.075 41.336 254.225 41.2163 253.392 41.1564V44.6564C254.275 44.7463 255.175 44.8062 256.058 44.8062C259.073 44.8062 260.589 43.7881 261.539 41.3061" fill="#231F20"/>
<path d="M279.08 39.3613H283.229V18H278.864V25.7787H278.814H278.831C277.814 24.2532 275.965 23.4763 274.083 23.4763C269.401 23.4763 267.036 27.3357 267.036 31.4929C267.036 35.7714 269.368 39.7805 274.183 39.7805C276.215 39.7805 277.998 39.0619 279.03 37.3867H279.08V39.3613ZM279.03 31.5827C279.03 34.1245 278.164 36.5782 275.265 36.5782C272.55 36.5782 271.401 34.0347 271.401 31.6126C271.401 29.0708 272.383 26.677 275.265 26.677C278.098 26.677 279.03 29.0708 279.03 31.5827Z" fill="#231F20"/>
<path d="M53.4179 7.99999H73.7386L60.6529 28.8872H64.6944L77.6585 7.99999H98.6423L85.6782 28.4763H99.4253L93.7579 38.6254H79.2245L90.5627 52.7654H69.5789L59.0853 38.6254H55.0471L65.4774 52.7654H45.3382L34 37.8635" fill="#004B88"/>
</svg>
