<svg width="148" height="42" viewBox="0 0 148 42" fill="none" xmlns="http://www.w3.org/2000/svg">
<path d="M14.6719 2.9375V14.1055C14.6719 15.3711 14.4023 16.4688 13.8633 17.3984C13.3242 18.3203 12.5508 19.0234 11.543 19.5078C10.5352 19.9922 9.34375 20.2344 7.96875 20.2344C5.89062 20.2344 4.25391 19.6953 3.05859 18.6172C1.86328 17.5391 1.25391 16.0625 1.23047 14.1875V2.9375H5.36719V14.2695C5.41406 16.1367 6.28125 17.0703 7.96875 17.0703C8.82031 17.0703 9.46484 16.8359 9.90234 16.3672C10.3398 15.8984 10.5586 15.1367 10.5586 14.082V2.9375H14.6719ZM26.0508 15.4648C26.0508 14.8633 25.8359 14.3945 25.4062 14.0586C24.9844 13.7227 24.2383 13.375 23.168 13.0156C22.0977 12.6562 21.2227 12.3086 20.543 11.9727C18.332 10.8867 17.2266 9.39453 17.2266 7.49609C17.2266 6.55078 17.5 5.71875 18.0469 5C18.6016 4.27344 19.3828 3.71094 20.3906 3.3125C21.3984 2.90625 22.5312 2.70312 23.7891 2.70312C25.0156 2.70312 26.1133 2.92188 27.082 3.35938C28.0586 3.79687 28.8164 4.42188 29.3555 5.23438C29.8945 6.03906 30.1641 6.96094 30.1641 8H26.0625C26.0625 7.30469 25.8477 6.76563 25.418 6.38281C24.9961 6 24.4219 5.80859 23.6953 5.80859C22.9609 5.80859 22.3789 5.97266 21.9492 6.30078C21.5273 6.62109 21.3164 7.03125 21.3164 7.53125C21.3164 7.96875 21.5508 8.36719 22.0195 8.72656C22.4883 9.07812 23.3125 9.44531 24.4922 9.82812C25.6719 10.2031 26.6406 10.6094 27.3984 11.0469C29.2422 12.1094 30.1641 13.5742 30.1641 15.4414C30.1641 16.9336 29.6016 18.1055 28.4766 18.957C27.3516 19.8086 25.8086 20.2344 23.8477 20.2344C22.4648 20.2344 21.2109 19.9883 20.0859 19.4961C18.9688 18.9961 18.125 18.3164 17.5547 17.457C16.9922 16.5898 16.7109 15.5938 16.7109 14.4688H20.8359C20.8359 15.3828 21.0703 16.0586 21.5391 16.4961C22.0156 16.9258 22.7852 17.1406 23.8477 17.1406C24.5273 17.1406 25.0625 16.9961 25.4531 16.707C25.8516 16.4102 26.0508 15.9961 26.0508 15.4648ZM41.9648 16.8125H36.3281L35.3438 20H30.9492L37.207 2.9375H41.0742L47.3789 20H42.9609L41.9648 16.8125ZM37.3125 13.6367H40.9805L39.1406 7.71875L37.3125 13.6367Z" fill="#BB133E"/>
<path d="M62.4375 14.2227C62.3828 15.4102 62.0625 16.4609 61.4766 17.375C60.8906 18.2812 60.0664 18.9844 59.0039 19.4844C57.9492 19.9844 56.7422 20.2344 55.3828 20.2344C53.1406 20.2344 51.375 19.5039 50.0859 18.043C48.7969 16.582 48.1523 14.5195 48.1523 11.8555V11.0117C48.1523 9.33984 48.4414 7.87891 49.0195 6.62891C49.6055 5.37109 50.4453 4.40234 51.5391 3.72266C52.6328 3.03516 53.8984 2.69141 55.3359 2.69141C57.4062 2.69141 59.0703 3.23828 60.3281 4.33203C61.5859 5.41797 62.3008 6.91797 62.4727 8.83203H58.3711C58.3398 7.79297 58.0781 7.04688 57.5859 6.59375C57.0938 6.14062 56.3438 5.91406 55.3359 5.91406C54.3125 5.91406 53.5625 6.29688 53.0859 7.0625C52.6094 7.82812 52.3594 9.05078 52.3359 10.7305V11.9375C52.3359 13.7578 52.5625 15.0586 53.0156 15.8398C53.4766 16.6211 54.2656 17.0117 55.3828 17.0117C56.3281 17.0117 57.0508 16.7891 57.5508 16.3438C58.0508 15.8984 58.3164 15.1914 58.3477 14.2227H62.4375ZM74.0742 16.8125H68.4375L67.4531 20H63.0586L69.3164 2.9375H73.1836L79.4883 20H75.0703L74.0742 16.8125ZM69.4219 13.6367H73.0898L71.25 7.71875L69.4219 13.6367ZM87.082 13.9766H84.8555V20H80.7422V2.9375H87.457C89.4805 2.9375 91.0625 3.38672 92.2031 4.28516C93.3438 5.18359 93.9141 6.45312 93.9141 8.09375C93.9141 9.28125 93.6719 10.2656 93.1875 11.0469C92.7109 11.8281 91.9609 12.4609 90.9375 12.9453L94.5 19.8242V20H90.0938L87.082 13.9766ZM84.8555 10.8008H87.457C88.2383 10.8008 88.8242 10.5977 89.2148 10.1914C89.6133 9.77734 89.8125 9.20312 89.8125 8.46875C89.8125 7.73437 89.6133 7.16016 89.2148 6.74609C88.8164 6.32422 88.2305 6.11328 87.457 6.11328H84.8555V10.8008ZM105.199 15.4648C105.199 14.8633 104.984 14.3945 104.555 14.0586C104.133 13.7227 103.387 13.375 102.316 13.0156C101.246 12.6562 100.371 12.3086 99.6914 11.9727C97.4805 10.8867 96.375 9.39453 96.375 7.49609C96.375 6.55078 96.6484 5.71875 97.1953 5C97.75 4.27344 98.5312 3.71094 99.5391 3.3125C100.547 2.90625 101.68 2.70312 102.938 2.70312C104.164 2.70312 105.262 2.92188 106.23 3.35938C107.207 3.79687 107.965 4.42188 108.504 5.23438C109.043 6.03906 109.312 6.96094 109.312 8H105.211C105.211 7.30469 104.996 6.76563 104.566 6.38281C104.145 6 103.57 5.80859 102.844 5.80859C102.109 5.80859 101.527 5.97266 101.098 6.30078C100.676 6.62109 100.465 7.03125 100.465 7.53125C100.465 7.96875 100.699 8.36719 101.168 8.72656C101.637 9.07812 102.461 9.44531 103.641 9.82812C104.82 10.2031 105.789 10.6094 106.547 11.0469C108.391 12.1094 109.312 13.5742 109.312 15.4414C109.312 16.9336 108.75 18.1055 107.625 18.957C106.5 19.8086 104.957 20.2344 102.996 20.2344C101.613 20.2344 100.359 19.9883 99.2344 19.4961C98.1172 18.9961 97.2734 18.3164 96.7031 17.457C96.1406 16.5898 95.8594 15.5938 95.8594 14.4688H99.9844C99.9844 15.3828 100.219 16.0586 100.688 16.4961C101.164 16.9258 101.934 17.1406 102.996 17.1406C103.676 17.1406 104.211 16.9961 104.602 16.707C105 16.4102 105.199 15.9961 105.199 15.4648Z" fill="#F2F2F2"/>
<path d="M113.684 16.168C114.309 16.168 114.828 16.3555 115.242 16.7305C115.656 17.0977 115.863 17.5703 115.863 18.1484C115.863 18.7266 115.656 19.2031 115.242 19.5781C114.828 19.9453 114.309 20.1289 113.684 20.1289C113.051 20.1289 112.527 19.9414 112.113 19.5664C111.707 19.1914 111.504 18.7188 111.504 18.1484C111.504 17.5781 111.707 17.1055 112.113 16.7305C112.527 16.3555 113.051 16.168 113.684 16.168ZM132.656 17.8906C132.023 18.5938 131.098 19.1602 129.879 19.5898C128.66 20.0195 127.324 20.2344 125.871 20.2344C123.637 20.2344 121.852 19.5508 120.516 18.1836C119.18 16.8164 118.465 14.9141 118.371 12.4766L118.359 11C118.359 9.32031 118.656 7.85547 119.25 6.60547C119.844 5.34766 120.691 4.38281 121.793 3.71094C122.902 3.03125 124.184 2.69141 125.637 2.69141C127.762 2.69141 129.41 3.17969 130.582 4.15625C131.762 5.125 132.449 6.57422 132.645 8.50391H128.684C128.543 7.55078 128.238 6.87109 127.77 6.46484C127.301 6.05859 126.637 5.85547 125.777 5.85547C124.746 5.85547 123.949 6.29297 123.387 7.16797C122.824 8.04297 122.539 9.29297 122.531 10.918V11.9492C122.531 13.6523 122.82 14.9336 123.398 15.793C123.984 16.6445 124.902 17.0703 126.152 17.0703C127.223 17.0703 128.02 16.832 128.543 16.3555V13.707H125.684V10.8828H132.656V17.8906ZM145.629 12.7695H139.16V16.8359H146.801V20H135.047V2.9375H146.824V6.11328H139.16V9.71094H145.629V12.7695Z" fill="#E0E0E0"/>
<path d="M6.32422 40C6.24609 39.8477 6.18945 39.6582 6.1543 39.4316C5.74414 39.8887 5.21094 40.1172 4.55469 40.1172C3.93359 40.1172 3.41797 39.9375 3.00781 39.5781C2.60156 39.2188 2.39844 38.7656 2.39844 38.2188C2.39844 37.5469 2.64648 37.0312 3.14258 36.6719C3.64258 36.3125 4.36328 36.1309 5.30469 36.127H6.08398V35.7637C6.08398 35.4707 6.00781 35.2363 5.85547 35.0605C5.70703 34.8848 5.4707 34.7969 5.14648 34.7969C4.86133 34.7969 4.63672 34.8652 4.47266 35.002C4.3125 35.1387 4.23242 35.3262 4.23242 35.5645H2.53906C2.53906 35.1973 2.65234 34.8574 2.87891 34.5449C3.10547 34.2324 3.42578 33.9883 3.83984 33.8125C4.25391 33.6328 4.71875 33.543 5.23438 33.543C6.01562 33.543 6.63477 33.7402 7.0918 34.1348C7.55273 34.5254 7.7832 35.0762 7.7832 35.7871V38.5352C7.78711 39.1367 7.87109 39.5918 8.03516 39.9004V40H6.32422ZM4.92383 38.8223C5.17383 38.8223 5.4043 38.7676 5.61523 38.6582C5.82617 38.5449 5.98242 38.3945 6.08398 38.207V37.1172H5.45117C4.60352 37.1172 4.15234 37.4102 4.09766 37.9961L4.0918 38.0957C4.0918 38.3066 4.16602 38.4805 4.31445 38.6172C4.46289 38.7539 4.66602 38.8223 4.92383 38.8223ZM9.19531 40V33.6602H11.8438C12.707 33.6602 13.3691 33.8125 13.8301 34.1172C14.291 34.4219 14.5215 34.8594 14.5215 35.4297C14.5215 35.7227 14.4238 35.9863 14.2285 36.2207C14.0371 36.4512 13.7559 36.6289 13.3848 36.7539C13.8379 36.8398 14.1934 37.0098 14.4512 37.2637C14.7129 37.5137 14.8438 37.8223 14.8438 38.1895C14.8438 38.7793 14.6211 39.2285 14.1758 39.5371C13.7344 39.8457 13.0918 40 12.248 40H9.19531ZM10.8887 37.3691V38.6465H12.2539C12.8516 38.6465 13.1504 38.4375 13.1504 38.0195C13.1504 37.5938 12.8652 37.377 12.2949 37.3691H10.8887ZM10.8887 36.2324H11.9375C12.5312 36.2246 12.8281 36.0332 12.8281 35.6582C12.8281 35.4277 12.7461 35.2637 12.582 35.166C12.4219 35.0684 12.1758 35.0195 11.8438 35.0195H10.8887V36.2324ZM21.0723 35.0195H19.0391V40H17.3398V35.0195H15.3418V33.6602H21.0723V35.0195ZM21.4883 36.7715C21.4883 36.1426 21.6094 35.582 21.8516 35.0898C22.0938 34.5977 22.4414 34.2168 22.8945 33.9473C23.3516 33.6777 23.8809 33.543 24.4824 33.543C25.3379 33.543 26.0352 33.8047 26.5742 34.3281C27.1172 34.8516 27.4199 35.5625 27.4824 36.4609L27.4941 36.8945C27.4941 37.8672 27.2227 38.6484 26.6797 39.2383C26.1367 39.8242 25.4082 40.1172 24.4941 40.1172C23.5801 40.1172 22.8496 39.8242 22.3027 39.2383C21.7598 38.6523 21.4883 37.8555 21.4883 36.8477V36.7715ZM23.1816 36.8945C23.1816 37.4961 23.2949 37.957 23.5215 38.2773C23.748 38.5938 24.0723 38.752 24.4941 38.752C24.9043 38.752 25.2246 38.5957 25.4551 38.2832C25.6855 37.9668 25.8008 37.4629 25.8008 36.7715C25.8008 36.1816 25.6855 35.7246 25.4551 35.4004C25.2246 35.0762 24.9004 34.9141 24.4824 34.9141C24.0684 34.9141 23.748 35.0762 23.5215 35.4004C23.2949 35.7207 23.1816 36.2188 23.1816 36.8945ZM32.3984 38.002L34.0566 33.6602H36.1777V40H34.4844V36.1094L32.9668 40H31.8301L30.3418 36.1738V40H28.6484V33.6602H30.752L32.3984 38.002ZM37.3906 36.7715C37.3906 36.1426 37.5117 35.582 37.7539 35.0898C37.9961 34.5977 38.3438 34.2168 38.7969 33.9473C39.2539 33.6777 39.7832 33.543 40.3848 33.543C41.2402 33.543 41.9375 33.8047 42.4766 34.3281C43.0195 34.8516 43.3223 35.5625 43.3848 36.4609L43.3965 36.8945C43.3965 37.8672 43.125 38.6484 42.582 39.2383C42.0391 39.8242 41.3105 40.1172 40.3965 40.1172C39.4824 40.1172 38.752 39.8242 38.2051 39.2383C37.6621 38.6523 37.3906 37.8555 37.3906 36.8477V36.7715ZM39.084 36.8945C39.084 37.4961 39.1973 37.957 39.4238 38.2773C39.6504 38.5938 39.9746 38.752 40.3965 38.752C40.8066 38.752 41.127 38.5957 41.3574 38.2832C41.5879 37.9668 41.7031 37.4629 41.7031 36.7715C41.7031 36.1816 41.5879 35.7246 41.3574 35.4004C41.127 35.0762 40.8027 34.9141 40.3848 34.9141C39.9707 34.9141 39.6504 35.0762 39.4238 35.4004C39.1973 35.7207 39.084 36.2188 39.084 36.8945ZM47.5859 34.0117C48.3984 34.0117 49.0469 34.2812 49.5312 34.8203C50.0156 35.3594 50.2578 36.0918 50.2578 37.0176V37.0996C50.2578 38.0137 49.9883 38.7461 49.4492 39.2969C48.9102 39.8477 48.1855 40.123 47.2754 40.123C46.3613 40.123 45.6328 39.8262 45.0898 39.2324C44.5508 38.6348 44.2812 37.8242 44.2812 36.8008V36.5195C44.2891 35.0938 44.5293 33.9785 45.002 33.1738C45.4785 32.3652 46.1934 31.8555 47.1465 31.6445C47.6465 31.5352 47.9688 31.4277 48.1133 31.3223C48.2578 31.2129 48.3301 31.0625 48.3301 30.8711H49.7012C49.7012 31.4844 49.5352 31.9453 49.2031 32.2539C48.875 32.5625 48.2891 32.8008 47.4453 32.9688C46.9453 33.0703 46.5508 33.2676 46.2617 33.5605C45.9727 33.8535 45.7773 34.2656 45.6758 34.7969C46.2148 34.2734 46.8516 34.0117 47.5859 34.0117ZM47.2637 35.3828C46.8613 35.3828 46.5449 35.5176 46.3145 35.7871C46.0879 36.0566 45.9746 36.4941 45.9746 37.0996C45.9746 37.6387 46.0859 38.0508 46.3086 38.3359C46.5312 38.6172 46.8535 38.7578 47.2754 38.7578C47.6855 38.7578 48.002 38.6191 48.2246 38.3418C48.4473 38.0645 48.5605 37.6562 48.5645 37.1172V36.9766C48.5645 36.457 48.4492 36.0625 48.2188 35.793C47.9922 35.5195 47.6738 35.3828 47.2637 35.3828ZM54.9863 33.6602H56.6797V40H54.9863V36.0859L52.8652 40H51.166V33.6602H52.8652V37.5684L54.9863 33.6602ZM63.4883 33.6602V40H61.7949V35.0312H60.3008L60.1953 36.9883C60.1289 38.0312 59.9238 38.791 59.5801 39.2676C59.2363 39.7441 58.7246 39.9883 58.0449 40H57.4707L57.4531 38.623L57.6641 38.6055C57.9688 38.582 58.1914 38.4023 58.332 38.0664C58.4727 37.7305 58.5605 37.1582 58.5957 36.3496L58.7129 33.6602H63.4883ZM68.6152 33.6602H70.3086V40H68.6152V36.0859L66.4941 40H64.7949V33.6602H66.4941V37.5684L68.6152 33.6602ZM78.4121 33.6602H80.1055V40H78.4121V36.0859L76.291 40H74.5918V33.6602H76.291V37.5684L78.4121 33.6602ZM84.7285 35.5293C84.7285 35.3066 84.6543 35.1348 84.5059 35.0137C84.3613 34.8887 84.1543 34.8262 83.8848 34.8262C83.6074 34.8262 83.3809 34.8848 83.2051 35.002C83.0332 35.1152 82.9473 35.2773 82.9473 35.4883H81.2539C81.2539 34.9141 81.4922 34.4473 81.9688 34.0879C82.4453 33.7285 83.0547 33.5488 83.7969 33.5488C84.6133 33.5488 85.2539 33.709 85.7188 34.0293C86.1875 34.3496 86.4219 34.8047 86.4219 35.3945C86.4219 35.6758 86.3359 35.9355 86.1641 36.1738C85.9961 36.4082 85.7578 36.5957 85.4492 36.7363C86.1719 36.9902 86.5332 37.4805 86.5332 38.207C86.5332 38.7891 86.2832 39.2539 85.7832 39.6016C85.2871 39.9453 84.625 40.1172 83.7969 40.1172C83.0273 40.1172 82.3945 39.9375 81.8984 39.5781C81.4023 39.2188 81.1543 38.7344 81.1543 38.125H82.8477C82.8477 38.3398 82.9434 38.5137 83.1348 38.6465C83.3262 38.7793 83.5762 38.8457 83.8848 38.8457C84.1855 38.8457 84.4199 38.7754 84.5879 38.6348C84.7559 38.4941 84.8398 38.3105 84.8398 38.084C84.8398 37.8066 84.7598 37.6094 84.5996 37.4922C84.4395 37.3711 84.1992 37.3105 83.8789 37.3105H82.959V36.209H83.9375C84.4648 36.1934 84.7285 35.9668 84.7285 35.5293ZM97.3613 37.1582C97.2949 38.0762 96.9551 38.7988 96.3418 39.3262C95.7324 39.8535 94.9277 40.1172 93.9277 40.1172C92.834 40.1172 91.9727 39.75 91.3438 39.0156C90.7188 38.2773 90.4062 37.2656 90.4062 35.9805V35.459C90.4062 34.6387 90.5508 33.916 90.8398 33.291C91.1289 32.666 91.541 32.1875 92.0762 31.8555C92.6152 31.5195 93.2402 31.3516 93.9512 31.3516C94.9355 31.3516 95.7285 31.6152 96.3301 32.1426C96.9316 32.6699 97.2793 33.4102 97.373 34.3633H95.6152C95.5723 33.8125 95.418 33.4141 95.1523 33.168C94.8906 32.918 94.4902 32.793 93.9512 32.793C93.3652 32.793 92.9258 33.0039 92.6328 33.4258C92.3438 33.8438 92.1953 34.4941 92.1875 35.377V36.0215C92.1875 36.9434 92.3262 37.6172 92.6035 38.043C92.8848 38.4688 93.3262 38.6816 93.9277 38.6816C94.4707 38.6816 94.875 38.5586 95.1406 38.3125C95.4102 38.0625 95.5645 37.6777 95.6035 37.1582H97.3613ZM100.268 31.4688V38.5879H102.635V31.4688H104.398V38.5879H106.742V31.4688H108.5V40H98.5039V31.4688H100.268ZM114.945 38.2422H111.863L111.277 40H109.408L112.584 31.4688H114.213L117.406 40H115.537L114.945 38.2422ZM112.338 36.8184H114.471L113.398 33.625L112.338 36.8184Z" fill="#F2F2F2"/>
</svg>
