<svg width="24" height="24" viewBox="0 0 24 24" fill="none" xmlns="http://www.w3.org/2000/svg">
<path d="M12.0001 4.47998C11.2445 4.47998 10.506 4.70402 9.87778 5.12377C9.24958 5.54351 8.75996 6.14012 8.47084 6.83813C8.18171 7.53614 8.10606 8.30422 8.25346 9.04523C8.40085 9.78623 8.76467 10.4669 9.29891 11.0011C9.83314 11.5354 10.5138 11.8992 11.2548 12.0466C11.9958 12.194 12.7639 12.1183 13.4619 11.8292C14.1599 11.5401 14.7565 11.0505 15.1763 10.4223C15.596 9.79406 15.8201 9.05551 15.8201 8.29998C15.8201 7.28685 15.4176 6.31522 14.7012 5.59883C13.9848 4.88244 13.0132 4.47998 12.0001 4.47998ZM12.0001 10.7866C11.5082 10.7866 11.0275 10.6408 10.6185 10.3676C10.2096 10.0943 9.89088 9.70597 9.70268 9.25159C9.51447 8.79721 9.46522 8.29722 9.56117 7.81486C9.65712 7.33249 9.89395 6.88941 10.2417 6.54164C10.5895 6.19388 11.0326 5.95704 11.5149 5.86109C11.9973 5.76515 12.4973 5.81439 12.9517 6.0026C13.406 6.19081 13.7944 6.50953 14.0676 6.91846C14.3409 7.32739 14.4867 7.80817 14.4867 8.29998C14.485 8.95833 14.2222 9.58911 13.756 10.054C13.2899 10.5189 12.6584 10.78 12.0001 10.78V10.7866Z" fill="#BB133E"/>
<path d="M12.0001 1.33325C9.92353 1.33499 7.93205 2.15838 6.4606 3.62358C4.98915 5.08879 4.1573 7.07674 4.14673 9.15325C4.14673 12.2666 5.8934 14.8733 7.17339 16.7733L7.40673 17.1199C8.68025 18.9657 10.0464 20.7457 11.5001 22.4533L12.0067 23.0466L12.5134 22.4533C13.9668 20.7456 15.333 18.9655 16.6067 17.1199L16.8401 16.7666C18.1134 14.8666 19.8601 12.2666 19.8601 9.15325C19.8495 7.07559 19.0167 5.08663 17.5438 3.62123C16.0709 2.15584 14.0778 1.33323 12.0001 1.33325ZM15.7267 15.9999L15.4867 16.3533C14.3401 18.0733 12.8201 19.9999 12.0001 20.9533C11.2134 19.9999 9.66006 18.0733 8.51339 16.3533L8.28006 15.9999C7.10006 14.2399 5.48006 11.8333 5.48006 9.12659C5.48006 8.27037 5.64871 7.42253 5.97637 6.63149C6.30403 5.84045 6.78429 5.12169 7.38973 4.51625C7.99516 3.91081 8.71392 3.43055 9.50496 3.10289C10.296 2.77523 11.1438 2.60659 12.0001 2.60659C12.8563 2.60659 13.7041 2.77523 14.4952 3.10289C15.2862 3.43055 16.005 3.91081 16.6104 4.51625C17.2158 5.12169 17.6961 5.84045 18.0238 6.63149C18.3514 7.42253 18.5201 8.27037 18.5201 9.12659C18.5201 11.8599 16.9067 14.2666 15.7267 15.9999Z" fill="#BB133E"/>
</svg>
